<svg width="160" height="160" viewBox="0 0 160 160" fill="none" xmlns="http://www.w3.org/2000/svg">
  <rect width="160" height="160" rx="80" fill="#0F0F1A" />
  <circle cx="80" cy="80" r="58" stroke="#FFCA05" stroke-width="6" />
  <path
    d="M55 104V94.4C55 79.2 63.6 70.8 80.8 70.8C97.2 70.8 105 63 105 50.6C105 33.4 94.4 25 78.8 25C65.4 25 55 31.4 52 45.6"
    stroke="#FD4C04"
    stroke-width="8"
    stroke-linecap="round"
  />
  <path
    d="M56 121C62 130 72 135 84 135C102 135 113 124 113 108C113 97.4 107.8 90.4 99.6 88.2"
    stroke="#FFCA05"
    stroke-width="8"
    stroke-linecap="round"
  />
  <circle cx="62" cy="52" r="6" fill="#FFCA05" />
  <circle cx="94" cy="52" r="6" fill="#FD4C04" />
</svg>
